<?xml version="1.0" encoding="utf-8"?><!-- Uploaded to: SVG Repo, www.svgrepo.com, Generator: SVG Repo Mixer Tools -->
<svg fill="#000000" width="800px" height="800px" viewBox="0 0 24 24" id="car-allert" data-name="Line Color" xmlns="http://www.w3.org/2000/svg" class="icon line-color"><line id="secondary-upstroke" x1="13.95" y1="11.5" x2="14.05" y2="11.5" style="fill: none; stroke-linecap: round; stroke-linejoin: round; stroke-width: 2; stroke: rgb(44, 169, 188);"></line><path id="primary" d="M19,18h1a1,1,0,0,0,1-1V13.78a1,1,0,0,0-.76-1L19,12.5" style="fill: none; stroke: rgb(0, 0, 0); stroke-linecap: round; stroke-linejoin: round; stroke-width: 2;"></path><path id="primary-2" data-name="primary" d="M10,8H7.62a1,1,0,0,0-.9.55L5,12l-1.45.72a1,1,0,0,0-.55.9V17a1,1,0,0,0,1,1H5" style="fill: none; stroke: rgb(0, 0, 0); stroke-linecap: round; stroke-linejoin: round; stroke-width: 2;"></path><line id="primary-3" data-name="primary" x1="9" y1="18" x2="15" y2="18" style="fill: none; stroke: rgb(0, 0, 0); stroke-linecap: round; stroke-linejoin: round; stroke-width: 2;"></line><path id="secondary" d="M9,18a2,2,0,1,0-2,2A2,2,0,0,0,9,18Zm10,0a2,2,0,1,0-2,2A2,2,0,0,0,19,18ZM14,4V7" style="fill: none; stroke-linecap: round; stroke-linejoin: round; stroke-width: 2; stroke: rgb(44, 169, 188);"></path></svg>