<?xml version="1.0" encoding="UTF-8"?><svg id="a" xmlns="http://www.w3.org/2000/svg" viewBox="0 0 500 500"><path d="M355.42,208.01l-6.6,15.01c-2.31,5.28-8.68,7.78-14.24,5.57-4.16-1.68-6.68-5.52-6.68-9.59,0-1.31.29-2.68.86-3.99l6.6-15.04c-11.18-.02-21.81,6.24-26.38,16.67-4.05,9.22-2.34,19.37,3.56,26.83l-26.72,60.87c1.38,1.76,3.22,3.25,5.38,4.53l19.18-43.7c1.59-3.59,5.95-5.3,9.72-3.79,3.79,1.51,5.59,5.67,4,9.27l-19.05,43.43c1.38.35,2.73.62,4.05.87.91.17,1.79.37,2.65.62l25.68-58.52c-4.89.02-9.82-1.14-14.37-3.64-4.16-2.3-7.49-5.45-9.88-9.12,2.26,2.65,5.09,4.91,8.42,6.61t.05.05c.42.2.83.4,1.25.59.03,0,.08.02.1.05.39.17.78.35,1.17.5.13.05.26.1.42.15.39.15.81.32,1.22.45.16.05.31.1.47.15.44.15.91.27,1.38.4.08.02.16.05.23.07,13.54,3.44,28.02-3.07,33.58-15.73,4.57-10.43,1.79-22.05-6.06-29.58Z" style="fill:#5365c6; stroke-width:0px;"/><path d="M322.98,270.22l-19.13,43.58c-4.08-1.02-8.16-2.4-11.62-4.31l19.26-43.85c1.33-3.02,4.99-4.46,8.16-3.2,3.17,1.26,4.65,4.76,3.33,7.78Z" style="fill:#5365c6; stroke-width:0px;"/><path d="M177.69,261.4c3.77-1.51,8.14.2,9.72,3.79l20.07,45.68c2.16-1.07,4.08-2.3,5.72-3.74l-27.94-63.64c5.9-7.46,7.62-17.61,3.56-26.83-4.57-10.43-15.2-16.7-26.36-16.67l6.58,15.04c2.34,5.28-.29,11.35-5.82,13.58-1.38.54-2.78.79-4.18.79-4.26,0-8.32-2.4-10.06-6.37l-6.6-15.01c-7.85,7.53-10.63,19.15-6.06,29.58,5.56,12.66,20.04,19.17,33.58,15.73.08-.02.16-.05.23-.07.47-.12.94-.25,1.38-.4.16-.05.31-.1.47-.15.42-.12.83-.3,1.25-.45.13-.05.26-.1.39-.15.39-.15.78-.32,1.17-.5.03-.02.08-.05.1-.05.44-.2.83-.4,1.25-.59.03-.02.05-.02.05-.05,3.33-1.71,6.16-3.96,8.45-6.61-2.39,3.67-5.72,6.81-9.9,9.12-4.55,2.5-9.49,3.67-14.37,3.64l26.49,60.35c1.72-.69,3.53-1.26,5.41-1.63.39-.07.75-.15,1.14-.22l-19.7-44.89c-1.59-3.59.21-7.75,4-9.27Z" style="fill:#5365c6; stroke-width:0px;"/><path d="M206.38,311.41c-3.66,1.68-7.8,2.95-11.8,3.86l-19.78-45.06c-1.33-3.02.18-6.52,3.35-7.78,3.17-1.26,6.81.17,8.14,3.2l20.09,45.78Z" style="fill:#5365c6; stroke-width:0px;"/><path d="M345.8,130.72l.14,18.29c33.83,29.95,51.82,74.93,43.85,121.62-6.34,37.18-27.94,68.37-57.7,88.72l.13,16.61c44.43-26.55,74.05-73.61,74.05-127.17,0-47.89-23.7-90.58-60.47-118.07Z" style="fill:#82c7c9; stroke-width:0px;"/><path d="M107.98,226.94c5.37-31.46,21.68-58.6,44.58-78.54l-.14-18.02c-37.03,27.47-60.92,70.32-60.92,118.41,0,55.38,31.67,103.8,78.62,129.79l-.13-16.39c-45.28-28.66-71.31-80.78-62.02-135.24Z" style="fill:#82c7c9; stroke-width:0px;"/><path d="M464.19,273.9v-58.82l-40.48-5.73c-1.38-6.02-3.11-11.91-5.13-17.68l32.14-24.32-30.85-50.94-38.68,14.56c-4.21-4.41-8.65-8.6-13.31-12.57l15.29-36.9-38.2-21.02c.18.78.31,1.58.32,2.4l.09,12.33c0,.85-.09,1.7-.26,2.52.18.8.3,1.62.3,2.47l.35,45.74c39.09,28.08,64.41,72.68,64.41,122.82,0,55.71-31.25,104.58-77.92,131.55l.07,9.57c.1,13.71-3.58,26.62-10.1,37.84l7.68,9.22,53.44-29.41-14.54-35.09c5.03-4.33,9.77-8.95,14.25-13.79l36.91,13.9,30.85-50.94-31.48-23.82c2-5.96,3.67-12.06,4.98-18.28l39.87-5.64Z" style="fill:#0c2738; stroke-width:0px;"/><path d="M170.16,382.88c-49.21-26.35-82.55-76.57-82.55-134.1,0-50.3,25.48-95.04,64.79-123.1l-.34-44.11c0-.85.1-1.67.27-2.47-.19-.82-.3-1.66-.3-2.52l-.09-12.33c0-1.24.21-2.43.57-3.57l-38.06,20.95,15.26,36.81c-4.7,3.99-9.16,8.22-13.4,12.66l-38.48-14.49-30.85,50.94,32.01,24.22c-2.04,5.82-3.77,11.76-5.15,17.84l-40.22,5.69v58.82l39.68,5.61c1.33,6.28,3.03,12.44,5.06,18.45l-31.26,23.65,30.85,50.94,36.78-13.85c4.52,4.87,9.32,9.49,14.39,13.83l-14.47,34.92,53.44,29.41,10.49-12.6c-5.24-10.11-8.23-21.46-8.32-33.43l-.06-8.15Z" style="fill:#0c2738; stroke-width:0px;"/><path d="M332.1,45.02c-27.68-4.83-55.7-7.16-83.72-6.99-28.04.22-56.04,2.92-83.64,8.15l.1,14.69c27.76-5.72,55.67-8.67,83.64-8.87,27.94-.2,55.91,2.38,83.74,7.7l-.13-14.69ZM178.23,54.64l-.05-7.09c7.43-1.19,14.89-2.2,22.4-3.02l.05,6.84c-7.49.89-14.97,1.98-22.4,3.27ZM296.31,50.7l-.05-6.84c7.51.72,15,1.64,22.43,2.73l.08,7.06c-7.49-1.19-14.97-2.16-22.46-2.95Z" style="fill:#080c2b; stroke-width:0px;"/><path d="M332.28,67.2c-27.84-5.43-55.8-8.05-83.74-7.88-27.97.2-55.88,3.22-83.61,9.04l.08,12.31c27.73-5.72,55.67-8.67,83.61-8.89,27.97-.17,55.93,2.4,83.77,7.73l-.1-12.31ZM178.39,74.43l-.05-4.93c7.46-1.34,14.92-2.48,22.4-3.39l.05,5.05c-7.49.89-14.97,1.98-22.4,3.27ZM296.47,70.49l-.05-5.05c7.51.82,15,1.86,22.46,3.07l.03,4.93c-7.46-1.16-14.95-2.16-22.43-2.95Z" style="fill:#080c2b; stroke-width:0px;"/><path d="M332.41,84.51c-27.81-5.43-55.8-8.03-83.74-7.85-27.97.22-55.88,3.22-83.61,9.02.16,23.09.49,64.64.62,80.44,0,1.04,1.4,1.41,2,.54,9.3-13.65,49.64-24.15,81.48-24.43,31.87-.17,72.36,9.76,81.85,23.29.62.87,2.03.47,2.03-.57-.13-15.81-.44-57.35-.62-80.44ZM178.96,149.5l-.47-60.2c7.46-1.34,14.92-2.45,22.4-3.37l.44,55.82c-8.37,2.03-15.98,4.63-22.38,7.75ZM249.06,126.95c-8.34-.05-15.1-6.44-15.18-14.39-.05-7.98,6.63-14.47,14.95-14.62,8.34.02,15.1,6.44,15.18,14.39.05,7.95-6.63,14.47-14.95,14.62ZM296.99,141.07l-.42-55.82c7.51.79,15,1.83,22.46,3.07l.47,60.18c-6.45-3.02-14.11-5.52-22.51-7.43Z" style="fill:#080c2b; stroke-width:0px;"/><path d="M188.45,343c-.03-4.41,3.17-8.25,7.62-9.14,26.33-5.28,40.75-18.11,40.62-36.17l-1.01-130.91c-.05-6.42,5.38-11.74,12.11-11.84l3.25-.02c6.81,0,12.29,5.25,12.35,11.67l.99,130.93c.16,18.04,14.76,30.67,41.17,35.58,4.47.84,7.72,4.63,7.77,9.02l.36,49.67h5.64l-.39-49.7c-.05-6.94-5.17-12.93-12.32-14.25-14.4-2.68-36.44-10.08-36.6-30.37l-1.12-147.21c-6.29-.52-12.84-.74-19.49-.69-6.68.05-13.2.37-19.49.97l1.14,147.21c.16,20.29-21.76,27.99-36.13,30.87-7.12,1.44-12.16,7.48-12.11,14.42l.39,48.75h5.64l-.39-48.78ZM295.71,436.53c-11.7,11.3-27.32,17.56-43.98,17.64h-.47c-17.08,0-32.62-6.61-43.93-17.32-10.6-10.03-17.47-23.63-18.38-38.72h-5.64c1.9,34.41,31.92,61.66,68.44,61.41,36.21-.27,65.58-27.4,67.47-61.41h-5.64c-.81,14.49-7.07,28.02-17.88,38.4Z" style="fill:#080c2b; stroke-width:0px;"/><path d="M250.9,347.32c26.51-.17,48.37,19.57,49.96,44.47h11.02l-.36-49.65c-.03-3.59-2.68-6.69-6.32-7.36-27.34-5.08-42.47-18.31-42.6-37.26l-1.01-130.91c-.03-5.5-4.73-9.98-10.42-9.98l-3.35.02c-5.74.07-10.4,4.63-10.34,10.13l.99,130.91c.16,18.95-14.76,32.38-42,37.85-3.64.72-6.24,3.84-6.21,7.43l.36,48.8h11.1c1.56-24.6,22.98-44.27,49.2-44.47ZM257.77,260.8l-15.46-11.4-.05-6.42,15.47,11.4.05,6.42ZM257.51,226.67l.16,21.55-15.44-11.4-.18-21.55,15.47,11.4ZM251.63,442c-26.28.2-48.01-19.22-49.88-43.87h-11.02c1.92,30.22,28.41,54.33,60.53,54.33h.44c16.19-.07,31.37-6.14,42.76-17.12,10.45-10.08,16.53-23.16,17.34-37.21h-10.99c-1.85,24.35-23.13,43.68-49.18,43.87Z" style="fill:#080c2b; stroke-width:0px;"/></svg>